<svg width="163" height="100" viewBox="0 0 163 100" fill="none" xmlns="http://www.w3.org/2000/svg">
<path d="M81.351 0C53.6856 0 31.2783 22.3747 31.2783 50C31.2783 77.6253 53.6856 100 81.351 100C109.016 100 131.424 77.6253 131.424 50C131.424 22.3747 109.016 0 81.351 0ZM81.351 90C59.2184 90 41.2928 72.1005 41.2928 50C41.2928 27.8995 59.2184 10 81.351 10C103.484 10 121.409 27.8995 121.409 50C121.409 72.1005 103.484 90 81.351 90Z" fill="#B2935B"/>
<path d="M24.2546 63.3424C23.6128 64.0808 22.9236 64.6109 22.1841 64.93C21.4446 65.253 20.5493 65.4152 19.5009 65.4152C18.117 65.4152 17.025 65.1225 16.2261 64.5397C15.4259 63.9569 14.9069 62.9614 14.6679 61.5545L14.0235 57.9838C13.7132 56.2472 13.3382 54.9669 12.8985 54.1441C12.4574 53.3213 11.7232 52.9099 10.6959 52.9099H8.37185V61.1272C8.37185 62.0318 8.43655 62.6871 8.56728 63.0945C8.70065 63.4993 8.94494 63.7736 9.30147 63.9173C9.66064 64.0584 10.2443 64.1534 11.0551 64.2021V64.9142C9.76628 64.8443 7.96514 64.8087 5.65166 64.8087C3.10181 64.8087 1.21748 64.8443 0 64.9142V64.2021C0.788327 64.1534 1.36802 64.0584 1.73775 63.9173C2.10749 63.7736 2.35706 63.4993 2.48779 63.0945C2.61719 62.6871 2.68322 62.0318 2.68322 61.1272V43.411C2.68322 42.5038 2.61719 41.8485 2.48779 41.4437C2.35706 41.0402 2.10749 40.7673 1.73775 40.6262C1.36802 40.4825 0.788327 40.3862 0 40.3361V39.6241C1.21748 39.6953 3.03183 39.7296 5.44038 39.7296L9.41239 39.6926C9.88776 39.6689 10.4344 39.6557 11.0551 39.6557C14.347 39.6557 16.8203 40.1924 18.4762 41.2644C20.1347 42.3377 20.964 43.8738 20.964 45.8741C20.964 47.5658 20.3433 49.0545 19.1047 50.3414C17.8648 51.6257 15.8141 52.4339 12.9513 52.7675C15.0984 52.9574 16.6975 53.4216 17.7473 54.1599C18.7957 54.8983 19.4758 56.0059 19.7861 57.4827L20.6101 61.1642C20.8002 62.1175 21.0194 62.7834 21.2703 63.1631C21.5199 63.5429 21.8725 63.7327 22.3267 63.7327C22.6119 63.7116 22.8549 63.6418 23.0556 63.5218C23.259 63.4031 23.494 63.2 23.7581 62.9152L24.2546 63.3424ZM10.5903 40.3361C9.94587 40.3361 9.47313 40.4205 9.1747 40.5893C8.87892 40.7554 8.67028 41.0521 8.55144 41.4806C8.43127 41.9105 8.37185 42.5539 8.37185 43.411V52.1979H9.90889C11.8658 52.1979 13.2075 51.681 13.9337 50.6473C14.6626 49.6109 15.0271 48.1499 15.0271 46.2644C15.0271 44.3129 14.6798 42.8387 13.9865 41.8393C13.2959 40.8372 12.1643 40.3361 10.5903 40.3361Z" fill="#1F2122"/>
<path d="M48.19 40.3362C47.4003 40.4562 46.822 40.6606 46.4522 40.948C46.0825 41.2328 45.8316 41.6851 45.7022 42.3035C45.5715 42.9232 45.5068 43.8383 45.5068 45.0514V54.5187C45.5068 57.9259 45.0169 60.4509 44.0384 62.0925C43.394 63.1408 42.4617 63.957 41.2442 64.5398C40.0294 65.1226 38.5399 65.4153 36.7757 65.4153C34.008 65.4153 31.8609 64.8193 30.3371 63.6273C29.2384 62.7492 28.499 61.6363 28.1187 60.2887C27.7384 58.9425 27.5482 57.0543 27.5482 54.6242V43.4111C27.5482 42.5039 27.4809 41.8486 27.3475 41.4438C27.2168 41.0403 26.9672 40.7674 26.5975 40.6263C26.2277 40.4826 25.6494 40.3863 24.865 40.3362V39.6242C26.0798 39.6954 27.9391 39.7297 30.4427 39.7297C32.9252 39.7297 34.8214 39.6954 36.1313 39.6242V40.3362C35.2717 40.3863 34.6445 40.4826 34.251 40.6263C33.8601 40.7674 33.5921 41.0403 33.4481 41.4438C33.3068 41.8486 33.2368 42.5039 33.2368 43.4111V56.8763C33.2368 59.3763 33.5987 61.217 34.3249 62.3984C35.0538 63.5772 36.3347 64.1653 38.1702 64.1653C40.5576 64.1653 42.2386 63.3623 43.2144 61.755C44.1929 60.145 44.6828 57.8652 44.6828 54.9143V45.4786C44.6828 44.1007 44.5983 43.0775 44.4292 42.409C44.2629 41.7418 43.9407 41.2592 43.4626 40.9638C42.9873 40.6658 42.2372 40.4562 41.2125 40.3362V39.6242C42.1171 39.6954 43.4045 39.7297 45.0736 39.7297C46.4113 39.7297 47.4505 39.6954 48.19 39.6242V40.3362ZM40.1403 31.5493C40.4744 31.3594 40.8441 31.2645 41.2495 31.2645C41.6298 31.2645 41.9797 31.3594 42.3006 31.5493C42.6241 31.7391 42.8684 32.0015 43.0348 32.3351C43.1787 32.5751 43.2514 32.8494 43.2514 33.1579C43.2514 33.5139 43.1431 33.8528 42.9292 34.1759C42.7139 34.4963 42.4168 34.7639 42.0365 34.9775C41.6774 35.1674 41.2574 35.3402 40.7794 35.4944C40.3041 35.65 39.793 35.7871 39.2477 35.9058C39.0787 35.9559 38.5465 36.0996 37.6525 36.3383C36.7572 36.5743 35.7378 36.9066 34.5943 37.3351L34.346 36.9079C35.5107 35.9309 36.6912 34.8009 37.8849 33.5166C38.4092 32.9681 38.8264 32.5567 39.1368 32.2824C39.4457 32.0081 39.7811 31.7642 40.1403 31.5493Z" fill="#1F2122"/>
<path d="M59.6364 39.16C60.875 39.16 61.8653 39.28 62.6048 39.5186C63.3443 39.7546 64.0943 40.0988 64.8549 40.5524C65.119 40.6935 65.3514 40.8135 65.5521 40.911C65.7555 41.006 65.9298 41.0534 66.075 41.0534C66.2889 41.0534 66.4553 40.9295 66.5715 40.679C66.6904 40.4258 66.7881 40.0276 66.862 39.4817H67.6807C67.5645 41.0745 67.5064 43.7895 67.5064 47.6252H66.6824C66.5874 46.3382 66.2942 45.112 65.8056 43.9437C65.3157 42.7768 64.6238 41.8314 63.7299 41.1062C62.8346 40.3783 61.7914 40.0144 60.5977 40.0144C59.4317 40.0144 58.4849 40.344 57.756 41.0007C57.0271 41.6547 56.6626 42.5408 56.6626 43.6589C56.6626 44.4923 56.8422 45.2188 57.2014 45.8372C57.5606 46.4569 58.0597 47.0226 58.7015 47.5355C59.3459 48.0497 60.3362 48.7459 61.6752 49.6241L62.8161 50.41C64.2237 51.3382 65.3329 52.1492 66.1437 52.8414C66.9531 53.531 67.6147 54.334 68.1297 55.2517C68.6434 56.1695 68.9009 57.2349 68.9009 58.4479C68.9009 59.9748 68.506 61.2565 67.7177 62.2929C66.932 63.3266 65.8651 64.1059 64.5169 64.6294C63.1673 65.1529 61.6712 65.4152 60.0272 65.4152C58.6922 65.4152 57.583 65.2953 56.6996 65.0566C55.8188 64.8179 55.0094 64.4962 54.2699 64.0914C53.7444 63.7578 53.3377 63.5904 53.0498 63.5904C52.8346 63.5904 52.6669 63.7169 52.548 63.9701C52.4318 64.2206 52.3367 64.6175 52.2628 65.1621H51.4441C51.5392 63.6642 51.5867 60.4508 51.5867 55.5207H52.4054C52.5744 58.1869 53.1713 60.3467 54.196 62.0028C55.2207 63.6589 56.7947 64.487 58.918 64.487C60.2068 64.487 61.2685 64.1428 62.103 63.4532C62.9376 62.761 63.3548 61.7707 63.3548 60.4838C63.3548 59.1521 62.9244 58.0089 62.066 57.0555C61.2064 56.1035 59.8476 55.0302 57.9884 53.8382C56.5583 52.91 55.4135 52.1017 54.5551 51.4121C53.6955 50.7198 52.9917 49.9036 52.4424 48.9648C51.8931 48.0234 51.6184 46.9329 51.6184 45.6948C51.6184 44.2681 51.9828 43.0603 52.7118 42.0714C53.4407 41.0838 54.4125 40.352 55.6274 39.8773C56.8422 39.4 58.1785 39.16 59.6364 39.16Z" fill="#1F2122"/>
<path d="M93.9745 39.6241C93.8082 41.8854 93.7263 43.9094 93.7263 45.6948C93.7263 46.8129 93.7606 47.7188 93.8319 48.411H93.0079C92.4375 45.4825 91.6571 43.4216 90.668 42.2296C89.6777 41.0376 88.3242 40.4416 86.6062 40.4416H85.7823V60.8424C85.7823 61.8419 85.8826 62.5671 86.0833 63.0207C86.2867 63.4743 86.6459 63.7789 87.1608 63.9332C87.6745 64.0887 88.4919 64.1784 89.6117 64.2021V64.9142C86.6076 64.8443 84.3416 64.8087 82.8138 64.8087C81.3098 64.8087 79.1284 64.8443 76.2695 64.9142V64.2021C77.3893 64.1784 78.204 64.0887 78.7151 63.9332C79.2287 63.7789 79.5866 63.4743 79.7873 63.0207C79.9906 62.5671 80.0936 61.8419 80.0936 60.8424V40.4416H79.3066C78.1618 40.4416 77.1899 40.6934 76.391 41.1958C75.5908 41.6956 74.9041 42.5236 74.3311 43.68C73.7606 44.8337 73.272 46.4107 72.868 48.411H72.044C72.1179 47.7188 72.1549 46.8129 72.1549 45.6948C72.1549 43.9094 72.0704 41.8854 71.9014 39.6241C74.0736 39.6953 77.759 39.7296 82.9564 39.7296C88.1565 39.7296 91.8301 39.6953 93.9745 39.6241Z" fill="#1F2122"/>
<path d="M107.818 40.3362C107.007 40.3863 106.423 40.4825 106.064 40.6263C105.708 40.7673 105.463 41.0403 105.33 41.4438C105.199 41.8486 105.135 42.5039 105.135 43.4111V61.1273C105.135 62.0318 105.199 62.6872 105.33 63.0946C105.463 63.4994 105.708 63.7737 106.064 63.9174C106.423 64.0585 107.007 64.1534 107.818 64.2022V64.9142C106.529 64.8443 104.728 64.8087 102.414 64.8087C99.8645 64.8087 97.9802 64.8443 96.7627 64.9142V64.2022C97.551 64.1534 98.1307 64.0585 98.5004 63.9174C98.8702 63.7737 99.1198 63.4994 99.2505 63.0946C99.3799 62.6872 99.4459 62.0318 99.4459 61.1273V43.4111C99.4459 42.5039 99.3799 41.8486 99.2505 41.4438C99.1198 41.0403 98.8702 40.7673 98.5004 40.6263C98.1307 40.4825 97.551 40.3863 96.7627 40.3362V39.6241C97.9802 39.6953 99.8645 39.7296 102.414 39.7296C104.728 39.7296 106.529 39.6953 107.818 39.6241V40.3362Z" fill="#1F2122"/>
<path d="M123.845 39.123C125.274 39.123 126.489 39.3261 127.49 39.7296C128.494 40.1344 129.472 40.7053 130.427 41.4437C130.691 41.6586 130.918 41.7655 131.108 41.7655C131.584 41.7655 131.893 41.0521 132.038 39.6241H132.862C132.767 41.242 132.719 44.123 132.719 48.2686H131.895C131.68 46.507 131.393 45.1621 131.034 44.2338C130.678 43.3029 130.07 42.492 129.212 41.8024C128.616 41.2301 127.924 40.795 127.136 40.4996C126.346 40.2016 125.525 40.0513 124.669 40.0513C122.261 40.0513 120.472 41.2248 119.303 43.5692C118.133 45.915 117.549 48.8382 117.549 52.3403C117.549 55.8187 118.157 58.7248 119.372 61.0587C120.589 63.3899 122.404 64.5555 124.812 64.5555C125.622 64.5555 126.426 64.4079 127.226 64.1125C128.025 63.8145 128.7 63.3781 129.249 62.8045C130.128 62.1399 130.741 61.3092 131.087 60.3098C131.436 59.3076 131.705 57.8414 131.895 55.911H132.719C132.719 60.2227 132.767 63.2238 132.862 64.9142H132.038C131.966 64.1521 131.865 63.6101 131.731 63.2897C131.601 62.9667 131.416 62.8045 131.177 62.8045C130.987 62.8045 130.736 62.9021 130.427 63.0946C129.352 63.8541 128.326 64.4316 127.347 64.8245C126.372 65.2175 125.192 65.4152 123.809 65.4152C121.28 65.4152 119.067 64.9036 117.169 63.8804C115.274 62.8546 113.802 61.3699 112.753 59.429C111.704 57.488 111.179 55.1726 111.179 52.4828C111.179 49.8641 111.716 47.5434 112.79 45.5207C113.864 43.4954 115.36 41.9237 117.28 40.8055C119.199 39.6848 121.387 39.123 123.845 39.123Z" fill="#1F2122"/>
<path d="M149.709 39.123C152.236 39.123 154.448 39.6347 156.343 40.6579C158.24 41.6811 159.714 43.1631 160.764 45.1041C161.812 47.045 162.338 49.363 162.338 52.0555C162.338 54.6755 161.8 56.9975 160.727 59.0228C159.652 61.0455 158.156 62.6172 156.237 63.738C154.317 64.8562 152.129 65.4152 149.672 65.4152C147.143 65.4152 144.93 64.9036 143.032 63.8804C141.137 62.8546 139.665 61.3699 138.616 59.429C137.567 57.488 137.042 55.1726 137.042 52.4828C137.042 49.8641 137.579 47.5434 138.653 45.5207C139.727 43.4954 141.223 41.9237 143.143 40.8055C145.062 39.6848 147.25 39.123 149.709 39.123ZM149.566 39.7665C148.252 39.7665 147.094 40.2979 146.09 41.3593C145.089 42.4181 144.322 43.9002 143.787 45.8055C143.251 47.7082 142.985 49.8865 142.985 52.3403C142.985 54.8166 143.287 56.9949 143.893 58.8752C144.502 60.7568 145.325 62.2111 146.36 63.237C147.398 64.2602 148.549 64.7718 149.814 64.7718C151.127 64.7718 152.283 64.243 153.284 63.1842C154.288 62.1228 155.056 60.6394 155.593 58.7328C156.127 56.8274 156.395 54.6492 156.395 52.1979C156.395 49.719 156.09 47.5395 155.482 45.6579C154.876 43.7776 154.053 42.3245 153.015 41.3013C151.98 40.2781 150.83 39.7665 149.566 39.7665Z" fill="#1F2122"/>
</svg>
