<svg width="163" height="100" viewBox="0 0 163 100" fill="none" xmlns="http://www.w3.org/2000/svg">
<path d="M81.3511 0C53.6857 0 31.2784 22.3747 31.2784 50C31.2784 77.6253 53.6857 100 81.3511 100C109.016 100 131.424 77.6253 131.424 50C131.424 22.3747 109.016 0 81.3511 0ZM81.3511 90C59.2185 90 41.293 72.1005 41.293 50C41.293 27.8995 59.2185 10 81.3511 10C103.484 10 121.409 27.8995 121.409 50C121.409 72.1005 103.484 90 81.3511 90Z" fill="#B2935B"/>
<path d="M24.2546 63.3425C23.6128 64.0809 22.9236 64.611 22.1841 64.9301C21.4446 65.2531 20.5493 65.4153 19.5009 65.4153C18.117 65.4153 17.025 65.1226 16.2261 64.5398C15.4259 63.957 14.9069 62.9614 14.6679 61.5545L14.0235 57.9839C13.7132 56.2473 13.3382 54.967 12.8985 54.1442C12.4574 53.3214 11.7232 52.91 10.6959 52.91H8.37185V61.1273C8.37185 62.0318 8.43656 62.6872 8.56728 63.0946C8.70065 63.4994 8.94494 63.7737 9.30147 63.9174C9.66064 64.0585 10.2443 64.1534 11.0551 64.2022V64.9142C9.76628 64.8443 7.96514 64.8087 5.65166 64.8087C3.10181 64.8087 1.21748 64.8443 0 64.9142V64.2022C0.788327 64.1534 1.36802 64.0585 1.73775 63.9174C2.10749 63.7737 2.35706 63.4994 2.48779 63.0946C2.61719 62.6872 2.68322 62.0318 2.68322 61.1273V43.4111C2.68322 42.5039 2.61719 41.8486 2.48779 41.4438C2.35706 41.0403 2.10749 40.7673 1.73775 40.6263C1.36802 40.4825 0.788327 40.3863 0 40.3362V39.6241C1.21748 39.6953 3.03183 39.7296 5.44038 39.7296L9.41239 39.6927C9.88776 39.669 10.4344 39.6558 11.0551 39.6558C14.347 39.6558 16.8203 40.1924 18.4762 41.2644C20.1347 42.3378 20.964 43.8739 20.964 45.8741C20.964 47.5659 20.3433 49.0545 19.1047 50.3414C17.8648 51.6257 15.8141 52.434 12.9513 52.7676C15.0984 52.9575 16.6975 53.4216 17.7473 54.16C18.7957 54.8984 19.4758 56.006 19.7861 57.4828L20.6101 61.1642C20.8002 62.1176 21.0194 62.7834 21.2703 63.1632C21.5199 63.5429 21.8725 63.7328 22.3267 63.7328C22.6119 63.7117 22.8549 63.6418 23.0556 63.5218C23.259 63.4032 23.494 63.2001 23.7581 62.9153L24.2546 63.3425ZM10.5903 40.3362C9.94587 40.3362 9.47313 40.4206 9.1747 40.5893C8.87892 40.7555 8.67028 41.0522 8.55144 41.4807C8.43127 41.9105 8.37185 42.554 8.37185 43.4111V52.198H9.90889C11.8658 52.198 13.2075 51.6811 13.9337 50.6474C14.6626 49.611 15.0271 48.15 15.0271 46.2644C15.0271 44.313 14.6798 42.8388 13.9865 41.8393C13.2959 40.8372 12.1643 40.3362 10.5903 40.3362Z" fill="white"/>
<path d="M48.1895 40.3361C47.3999 40.4561 46.8215 40.6605 46.4518 40.9479C46.0821 41.2328 45.8312 41.685 45.7018 42.3034C45.571 42.9232 45.5063 43.8382 45.5063 45.0513V54.5186C45.5063 57.9258 45.0164 60.4509 44.038 62.0925C43.3936 63.1407 42.4613 63.9569 41.2438 64.5397C40.029 65.1225 38.5395 65.4152 36.7753 65.4152C34.0076 65.4152 31.8605 64.8193 30.3366 63.6273C29.238 62.7491 28.4985 61.6362 28.1182 60.2887C27.7379 58.9424 27.5478 57.0542 27.5478 54.6241V43.411C27.5478 42.5039 27.4804 41.8485 27.3471 41.4437C27.2163 41.0402 26.9668 40.7673 26.597 40.6262C26.2273 40.4825 25.6489 40.3862 24.8646 40.3361V39.6241C26.0794 39.6953 27.9386 39.7296 30.4423 39.7296C32.9248 39.7296 34.821 39.6953 36.1309 39.6241V40.3361C35.2713 40.3862 34.644 40.4825 34.2505 40.6262C33.8597 40.7673 33.5916 41.0402 33.4477 41.4437C33.3064 41.8485 33.2364 42.5039 33.2364 43.411V56.8762C33.2364 59.3762 33.5982 61.2169 34.3245 62.3984C35.0534 63.5772 36.3343 64.1652 38.1697 64.1652C40.5572 64.1652 42.2381 63.3622 43.214 61.7549C44.1924 60.1449 44.6823 57.8651 44.6823 54.9142V45.4785C44.6823 44.1006 44.5978 43.0774 44.4288 42.4089C44.2624 41.7417 43.9402 41.2591 43.4622 40.9638C42.9868 40.6658 42.2368 40.4561 41.2121 40.3361V39.6241C42.1167 39.6953 43.4041 39.7296 45.0732 39.7296C46.4109 39.7296 47.4501 39.6953 48.1895 39.6241V40.3361ZM40.1399 31.5492C40.474 31.3593 40.8437 31.2644 41.2491 31.2644C41.6294 31.2644 41.9793 31.3593 42.3002 31.5492C42.6237 31.7391 42.868 32.0015 43.0344 32.3351C43.1783 32.5751 43.2509 32.8493 43.2509 33.1579C43.2509 33.5139 43.1427 33.8527 42.9287 34.1758C42.7135 34.4962 42.4164 34.7639 42.0361 34.9775C41.6769 35.1674 41.257 35.3401 40.779 35.4944C40.3036 35.65 39.7926 35.7871 39.2472 35.9058C39.0782 35.9559 38.5461 36.0996 37.6521 36.3382C36.7568 36.5743 35.7374 36.9065 34.5939 37.3351L34.3456 36.9079C35.5103 35.9308 36.6908 34.8008 37.8845 33.5165C38.4087 32.968 38.826 32.5566 39.1363 32.2823C39.4453 32.0081 39.7807 31.7641 40.1399 31.5492Z" fill="white"/>
<path d="M59.6364 39.16C60.875 39.16 61.8653 39.28 62.6048 39.5186C63.3443 39.7546 64.0943 40.0988 64.8549 40.5524C65.119 40.6935 65.3514 40.8135 65.5521 40.911C65.7555 41.006 65.9298 41.0534 66.075 41.0534C66.2889 41.0534 66.4553 40.9295 66.5715 40.679C66.6904 40.4258 66.7881 40.0276 66.862 39.4817H67.6807C67.5645 41.0745 67.5064 43.7895 67.5064 47.6252H66.6824C66.5874 46.3382 66.2942 45.112 65.8056 43.9437C65.3157 42.7768 64.6238 41.8314 63.7298 41.1062C62.8346 40.3783 61.7914 40.0144 60.5977 40.0144C59.4317 40.0144 58.4849 40.344 57.756 41.0007C57.0271 41.6547 56.6626 42.5408 56.6626 43.6589C56.6626 44.4923 56.8422 45.2188 57.2014 45.8372C57.5606 46.4569 58.0597 47.0226 58.7015 47.5355C59.3459 48.0497 60.3362 48.7459 61.6752 49.6241L62.8161 50.41C64.2237 51.3382 65.3329 52.1492 66.1437 52.8414C66.9531 53.531 67.6147 54.334 68.1297 55.2517C68.6434 56.1695 68.9009 57.2349 68.9009 58.448C68.9009 59.9748 68.506 61.2565 67.7177 62.2929C66.932 63.3266 65.8651 64.1059 64.5169 64.6294C63.1673 65.1529 61.6712 65.4153 60.0272 65.4153C58.6922 65.4153 57.583 65.2953 56.6996 65.0566C55.8188 64.8179 55.0094 64.4962 54.2699 64.0914C53.7444 63.7578 53.3377 63.5904 53.0498 63.5904C52.8346 63.5904 52.6669 63.7169 52.548 63.9701C52.4318 64.2206 52.3367 64.6175 52.2628 65.1621H51.4441C51.5392 63.6642 51.5867 60.4509 51.5867 55.5207H52.4054C52.5744 58.1869 53.1713 60.3467 54.196 62.0028C55.2207 63.6589 56.7947 64.487 58.918 64.487C60.2068 64.487 61.2685 64.1428 62.103 63.4532C62.9376 62.761 63.3548 61.7707 63.3548 60.4838C63.3548 59.1521 62.9244 58.0089 62.066 57.0555C61.2064 56.1035 59.8476 55.0302 57.9884 53.8382C56.5583 52.91 55.4135 52.1017 54.5551 51.4121C53.6955 50.7198 52.9917 49.9036 52.4424 48.9648C51.8931 48.0234 51.6184 46.9329 51.6184 45.6948C51.6184 44.2681 51.9828 43.0603 52.7118 42.0714C53.4407 41.0838 54.4125 40.352 55.6274 39.8773C56.8422 39.4 58.1785 39.16 59.6364 39.16Z" fill="white"/>
<path d="M93.9745 39.6241C93.8081 41.8855 93.7262 43.9095 93.7262 45.6948C93.7262 46.813 93.7606 47.7188 93.8319 48.4111H93.0079C92.4374 45.4825 91.657 43.4216 90.668 42.2296C89.6776 41.0376 88.3241 40.4417 86.6062 40.4417H85.7822V60.8425C85.7822 61.842 85.8826 62.5672 86.0833 63.0208C86.2866 63.4744 86.6458 63.7789 87.1608 63.9332C87.6745 64.0888 88.4918 64.1785 89.6116 64.2022V64.9142C86.6075 64.8443 84.3416 64.8087 82.8138 64.8087C81.3097 64.8087 79.1283 64.8443 76.2695 64.9142V64.2022C77.3892 64.1785 78.204 64.0888 78.715 63.9332C79.2287 63.7789 79.5865 63.4744 79.7872 63.0208C79.9906 62.5672 80.0936 61.842 80.0936 60.8425V40.4417H79.3066C78.1617 40.4417 77.1898 40.6935 76.3909 41.1959C75.5907 41.6956 74.9041 42.5237 74.331 43.6801C73.7605 44.8338 73.272 46.4108 72.8679 48.4111H72.0439C72.1179 47.7188 72.1548 46.813 72.1548 45.6948C72.1548 43.9095 72.0703 41.8855 71.9013 39.6241C74.0735 39.6953 77.759 39.7296 82.9564 39.7296C88.1564 39.7296 91.83 39.6953 93.9745 39.6241Z" fill="white"/>
<path d="M107.818 40.3362C107.007 40.3863 106.424 40.4825 106.065 40.6263C105.708 40.7673 105.464 41.0403 105.33 41.4438C105.2 41.8486 105.135 42.5039 105.135 43.4111V61.1273C105.135 62.0318 105.2 62.6872 105.33 63.0946C105.464 63.4994 105.708 63.7737 106.065 63.9174C106.424 64.0585 107.007 64.1534 107.818 64.2022V64.9142C106.529 64.8443 104.728 64.8087 102.415 64.8087C99.8649 64.8087 97.9805 64.8443 96.7631 64.9142V64.2022C97.5514 64.1534 98.1311 64.0585 98.5008 63.9174C98.8705 63.7737 99.1201 63.4994 99.2508 63.0946C99.3803 62.6872 99.4463 62.0318 99.4463 61.1273V43.4111C99.4463 42.5039 99.3803 41.8486 99.2508 41.4438C99.1201 41.0403 98.8705 40.7673 98.5008 40.6263C98.1311 40.4825 97.5514 40.3863 96.7631 40.3362V39.6241C97.9805 39.6953 99.8649 39.7296 102.415 39.7296C104.728 39.7296 106.529 39.6953 107.818 39.6241V40.3362Z" fill="white"/>
<path d="M123.845 39.123C125.274 39.123 126.489 39.3261 127.49 39.7296C128.494 40.1344 129.472 40.7053 130.427 41.4437C130.691 41.6586 130.918 41.7655 131.108 41.7655C131.583 41.7655 131.892 41.0521 132.038 39.6241H132.862C132.767 41.242 132.719 44.123 132.719 48.2686H131.895C131.68 46.507 131.393 45.1621 131.034 44.2338C130.678 43.3029 130.07 42.492 129.212 41.8024C128.616 41.2301 127.924 40.795 127.136 40.4996C126.346 40.2016 125.525 40.0513 124.669 40.0513C122.261 40.0513 120.472 41.2248 119.303 43.5693C118.133 45.915 117.549 48.8382 117.549 52.3403C117.549 55.8187 118.157 58.7248 119.372 61.0587C120.589 63.3899 122.403 64.5555 124.812 64.5555C125.621 64.5555 126.426 64.4079 127.226 64.1125C128.025 63.8145 128.7 63.3781 129.249 62.8045C130.128 62.1399 130.741 61.3092 131.087 60.3098C131.436 59.3076 131.705 57.8414 131.895 55.911H132.719C132.719 60.2227 132.767 63.2238 132.862 64.9142H132.038C131.966 64.1521 131.865 63.6101 131.731 63.2897C131.601 62.9667 131.416 62.8045 131.177 62.8045C130.987 62.8045 130.736 62.9021 130.427 63.0946C129.352 63.8541 128.326 64.4316 127.347 64.8245C126.372 65.2175 125.192 65.4152 123.808 65.4152C121.28 65.4152 119.067 64.9036 117.169 63.8804C115.274 62.8546 113.802 61.3699 112.753 59.429C111.704 57.488 111.179 55.1726 111.179 52.4828C111.179 49.8641 111.715 47.5434 112.79 45.5207C113.864 43.4954 115.36 41.9237 117.28 40.8055C119.199 39.6848 121.387 39.123 123.845 39.123Z" fill="white"/>
<path d="M149.709 39.123C152.236 39.123 154.448 39.6347 156.343 40.6579C158.24 41.6811 159.714 43.1631 160.764 45.1041C161.812 47.045 162.338 49.363 162.338 52.0555C162.338 54.6755 161.8 56.9975 160.727 59.0228C159.652 61.0455 158.156 62.6172 156.237 63.738C154.317 64.8562 152.129 65.4152 149.672 65.4152C147.143 65.4152 144.93 64.9036 143.032 63.8804C141.137 62.8546 139.665 61.3699 138.617 59.429C137.567 57.488 137.043 55.1726 137.043 52.4828C137.043 49.8641 137.579 47.5434 138.654 45.5207C139.727 43.4954 141.223 41.9237 143.143 40.8055C145.062 39.6848 147.25 39.123 149.709 39.123ZM149.566 39.7665C148.252 39.7665 147.094 40.2979 146.09 41.3593C145.09 42.4181 144.322 43.9002 143.788 45.8055C143.251 47.7082 142.985 49.8865 142.985 52.3403C142.985 54.8166 143.287 56.9949 143.893 58.8752C144.502 60.7568 145.325 62.2111 146.36 63.237C147.398 64.2602 148.549 64.7718 149.814 64.7718C151.127 64.7718 152.284 64.243 153.284 63.1842C154.288 62.1228 155.057 60.6394 155.593 58.7328C156.127 56.8274 156.396 54.6492 156.396 52.1979C156.396 49.719 156.09 47.5395 155.482 45.6579C154.876 43.7776 154.053 42.3245 153.015 41.3013C151.98 40.2781 150.83 39.7665 149.566 39.7665Z" fill="white"/>
</svg>
